<?xml version="1.0" encoding="iso-8859-1" standalone="no"?> 
<?xml-stylesheet href="Methods.css" type="text/css"?> 
<svg xmlns="http://www.w3.org/2000/svg" xmlns:xlink="http://www.w3.org/1999/xlink" width="77.12897pt" height="77.69122pt" viewBox="-10.5457 -67.14552 77.12897 77.69122 "> 
<g transform="translate(0, 10.5457 ) scale(1,-1) translate(0,67.14552 )"> 
   <g>
 <g stroke="rgb(0.0%,0.0%,0.0%)">
 <g fill="rgb(0.0%,0.0%,0.0%)">
 <g stroke-width="0.4pt">
 <g>
 <g>
 <path d=" M  10.3457 0.0 C  10.3457 5.71384 5.71384 10.3457 0.0 10.3457 C  -5.71384 10.3457 -10.3457 5.71384 -10.3457 0.0 C  -10.3457 -5.71384 -5.71384 -10.3457 0.0 -10.3457 C  5.71384 -10.3457 10.3457 -5.71384 10.3457 0.0 Z M  0.0 0.0  " style="fill:none"/>
 <g>
 <g transform="matrix(1.0,0.0,0.0,1.0,-2.56804,-2.54631)">
 <g fill="rgb(0.0%,0.0%,0.0%)">
 <text style="stroke:none" transform="scale(1,-1) translate(2.56804,0)" text-anchor="middle"  font-size="10.95"> 
<tspan font-family="cmmi" font-size="10">j</tspan></text> 
</g>
 </g>
 </g>
 </g>
 <g>
 <path d=" M  38.49278 -56.90549 C  38.49278 -51.36046 33.99777 -46.86545 28.45274 -46.86545 C  22.90771 -46.86545 18.4127 -51.36046 18.4127 -56.90549 C  18.4127 -62.45052 22.90771 -66.94553 28.45274 -66.94553 C  33.99777 -66.94553 38.49278 -62.45052 38.49278 -56.90549 Z M  28.45274 -56.90549  " style="fill:none"/>
 <g>
 <g transform="matrix(1.0,0.0,0.0,1.0,25.29828,-60.70757)">
 <g fill="rgb(0.0%,0.0%,0.0%)">
 <text style="stroke:none" transform="scale(1,-1) translate(3.15446,0)" text-anchor="middle"  font-size="10.95"> 
<tspan font-family="cmmi" font-size="10">h</tspan></text> 
</g>
 </g>
 </g>
 </g>
 <g>
 <path d=" M  66.38327 -28.45274 C  66.38327 -23.21825 62.13998 -18.97496 56.90549 -18.97496 C  51.67099 -18.97496 47.4277 -23.21825 47.4277 -28.45274 C  47.4277 -33.68724 51.67099 -37.93053 56.90549 -37.93053 C  62.13998 -37.93053 66.38327 -33.68724 66.38327 -28.45274 Z M  56.90549 -28.45274  " style="fill:none"/>
 <g>
 <g transform="matrix(1.0,0.0,0.0,1.0,54.15088,-29.74545)">
 <g fill="rgb(0.0%,0.0%,0.0%)">
 <text style="stroke:none" transform="scale(1,-1) translate(2.75461,0)" text-anchor="middle"  font-size="10.95"> 
<tspan font-family="cmmi" font-size="10">p</tspan></text> 
</g>
 </g>
 </g>
 </g>
 <path d=" M  23.8732 -47.74655 L  4.9226 -9.84538  " style="fill:none"/>
 <g>
 <g transform="matrix(-0.449,0.898,-0.898,-0.449,4.92262,-9.8454)">
 <g>
 <g stroke-width="0.31999pt">
 <g stroke-dasharray="none" stroke-dashoffset="0.0pt">
 <g stroke-linecap="round">
 <g stroke-linejoin="round">
 <path d=" M  -1.19998 1.59998 C  -1.09998 0.99998 0.0 0.09999 0.29999 0.0 C  0.0 -0.09999 -1.09998 -0.99998 -1.19998 -1.59998  " style="fill:none"/>
 </g>
 </g>
 </g>
 </g>
 </g>
  </g>
 </g>
 <path d=" M  35.69385 -49.66469 L  49.73686 -35.62123  " style="fill:none"/>
 <g>
 <g transform="matrix(0.7071,0.7071,-0.7071,0.7071,49.73686,-35.62123)">
 <g>
 <g stroke-width="0.31999pt">
 <g stroke-dasharray="none" stroke-dashoffset="0.0pt">
 <g stroke-linecap="round">
 <g stroke-linejoin="round">
 <path d=" M  -1.19998 1.59998 C  -1.09998 0.99998 0.0 0.09999 0.29999 0.0 C  0.0 -0.09999 -1.09998 -0.99998 -1.19998 -1.59998  " style="fill:none"/>
 </g>
 </g>
 </g>
 </g>
 </g>
  </g>
 </g>
 <g>
 <g stroke-dasharray="3.0pt,3.0pt" stroke-dashoffset="0.0pt">
 <path d=" M  48.24945 -24.12465 L  9.84375 -4.92177  " style="fill:none"/>
 <g>
 <g transform="matrix(-0.89442,0.44719,-0.44719,-0.89442,9.84375,-4.92178)">
 <g>
 <g stroke-width="0.31999pt">
 <g stroke-dasharray="none" stroke-dashoffset="0.0pt">
 <g stroke-linecap="round">
 <g stroke-linejoin="round">
 <path d=" M  -1.19998 1.59998 C  -1.09998 0.99998 0.0 0.09999 0.29999 0.0 C  0.0 -0.09999 -1.09998 -0.99998 -1.19998 -1.59998  " style="fill:none"/>
 </g>
 </g>
 </g>
 </g>
 </g>
  </g>
 </g>
 </g>
 </g>
 </g>
 </g>
 </g>
 </g>
 </g>
 
                  </g> 
</svg> 
