<?xml version="1.0" encoding="iso-8859-1" standalone="no"?> 
<?xml-stylesheet href="Methods.css" type="text/css"?> 
<svg xmlns="http://www.w3.org/2000/svg" xmlns:xlink="http://www.w3.org/1999/xlink" width="304.98634pt" height="87.18094pt" viewBox="-6.38712 -65.64139 304.98634 87.18094 "> 
<g transform="translate(0, 21.53955 ) scale(1,-1) translate(0,65.64139 )"> 
  </text:p> 
<g>
 <g stroke="rgb(0.0%,0.0%,0.0%)">
 <g fill="rgb(0.0%,0.0%,0.0%)">
 <g stroke-width="0.4pt">
 <g>
 <path d=" M  0.0 0.0 L  284.52744 0.0  " style="fill:none"/>
 <g>
 <g>
 <g transform="matrix(1.0,0.0,0.0,1.0,288.37704,-2.35728)">
 <g fill="rgb(0.0%,0.0%,0.0%)">
 <text style="stroke:none" transform="scale(1,-1) translate(3.28629,0)" text-anchor="middle"  font-size="10.95"> 
<tspan font-family="cmmi" font-size="10">n</tspan></text> 
</g>
 </g>
 </g>
 </g>
 <path d=" M  0.0 5.69046 L  0.0 -5.69046  " style="fill:none"/>
 <g>
 <g>
 <g transform="matrix(1.0,0.0,0.0,1.0,-2.7375,-16.59671)">
 <g fill="rgb(0.0%,0.0%,0.0%)">
 <text style="stroke:none" transform="scale(1,-1) translate(2.7375,0)" text-anchor="middle"  font-size="10.95"> 
0</text> 
</g>
 </g>
 </g>
 </g>
 <path d=" M  284.52744 5.69046 L  284.52744 -5.69046  " style="fill:none"/>
 <g>
 <g>
 <g transform="matrix(1.0,0.0,0.0,1.0,281.78993,-16.59671)">
 <g fill="rgb(0.0%,0.0%,0.0%)">
 <text style="stroke:none" transform="scale(1,-1) translate(2.7375,0)" text-anchor="middle"  font-size="10.95"> 
1</text> 
</g>
 </g>
 </g>
 </g>
 <path d=" M  199.1692 0.0 M  201.1611 0.0 C  201.1611 1.1001 200.2693 1.9919 199.1692 1.9919 C  198.0691 1.9919 197.1773 1.1001 197.1773 0.0 C  197.1773 -1.1001 198.0691 -1.9919 199.1692 -1.9919 C  200.2693 -1.9919 201.1611 -1.1001 201.1611 0.0 Z M  199.1692 0.0  " style="stroke:none"/>
 <g>
 <g>
 <g transform="matrix(1.0,0.0,0.0,1.0,193.68362,-8.56418)">
 <g fill="rgb(0.0%,0.0%,0.0%)">
 <text style="stroke:none" transform="scale(1,-1) translate(5.48558,0)" text-anchor="middle"  font-size="10.95"> 
<tspan font-family="cmmi" font-size="10">n</tspan><tspan baseline-shift="sub"><tspan font-family="cmmi" font-size="8">j</tspan></tspan></text> 
</g>
 </g>
 </g>
 </g>
 <path d=" M  199.1692 0.0 L  199.1692 21.33955 L  56.90549 21.33955 L  56.90549 14.22636  " style="fill:none"/>
 <path d=" M  8.5359 0.0 L  8.5359 14.22636 L  105.27505 14.22636 L  105.27505 0.0  " style="fill:none"/>
 <g>
 <g stroke-dasharray="3.0pt,3.0pt" stroke-dashoffset="0.0pt">
 <path d=" M  56.90549 14.22636 L  56.90549 0.0  " style="fill:none"/>
 <g>
 <g>
 <g transform="matrix(1.0,0.0,0.0,1.0,43.91861,7.04764)">
 <g fill="rgb(0.0%,0.0%,0.0%)">
 <text style="stroke:none" transform="scale(1,-1) translate(4.56863,0)" text-anchor="middle"  font-size="10.95"> 
<tspan font-family="cmmi" font-size="10">c</tspan><tspan baseline-shift="sub"><tspan font-family="cmmi" font-size="8">j</tspan> </tspan></text> 
</g>
 </g>
 </g>
 </g>
 </g>
 </g>
 <path d=" M  8.9959 -14.22636 L  104.81506 -14.22636  " style="fill:none"/>
 <g>
 <g transform="matrix(-1.0,0.0,0.0,-1.0,8.9959,-14.22636)">
 <g>
 <g stroke-width="0.31999pt">
 <g stroke-dasharray="none" stroke-dashoffset="0.0pt">
 <g stroke-linecap="round">
 <g stroke-linejoin="round">
 <path d=" M  -1.19998 1.59998 C  -1.09998 0.99998 0.0 0.09999 0.29999 0.0 C  0.0 -0.09999 -1.09998 -0.99998 -1.19998 -1.59998  " style="fill:none"/>
 </g>
 </g>
 </g>
 </g>
 </g>
  </g>
 </g>
 <g>
 <g transform="matrix(1.0,0.0,0.0,1.0,104.81506,-14.22636)">
 <g>
 <g stroke-width="0.31999pt">
 <g stroke-dasharray="none" stroke-dashoffset="0.0pt">
 <g stroke-linecap="round">
 <g stroke-linejoin="round">
 <path d=" M  -1.19998 1.59998 C  -1.09998 0.99998 0.0 0.09999 0.29999 0.0 C  0.0 -0.09999 -1.09998 -0.99998 -1.19998 -1.59998  " style="fill:none"/>
 </g>
 </g>
 </g>
 </g>
 </g>
  </g>
 </g>
 <g>
 <g fill="rgb(100.0%,100.0%,100.0%)">
 <g>
 <g fill="rgb(100.0%,100.0%,100.0%)">
 <path d=" M  48.43439 -21.83228 h  16.94217 v  15.21182 h  -16.94217 Z  " style="stroke:none"/>
 </g>
 </g>
 <g>
 <g transform="matrix(1.0,0.0,0.0,1.0,52.084,-14.98463)">
 <g fill="rgb(0.0%,0.0%,0.0%)">
 <text style="stroke:none" transform="scale(1,-1) translate(4.82147,0)" text-anchor="middle"  font-size="10.95"> 
<tspan font-family="cmmi" font-size="10">r</tspan><tspan baseline-shift="sub"><tspan font-family="cmmi" font-size="8">j</tspan> </tspan></text> 
</g>
 </g>
 </g>
 </g>
 </g>
 <g>
 <g stroke-dasharray="3.0pt,3.0pt" stroke-dashoffset="0.0pt">
 <path d=" M  8.5359 0.0 L  8.5359 -15.6491  " style="fill:none"/>
 </g>
 </g>
 <g>
 <g stroke-dasharray="3.0pt,3.0pt" stroke-dashoffset="0.0pt">
 <path d=" M  105.27505 0.0 L  105.27505 -15.6491  " style="fill:none"/>
 </g>
 </g>
 <path d=" M  85.35823 0.0 M  87.35013 0.0 C  87.35013 1.1001 86.45833 1.9919 85.35823 1.9919 C  84.25813 1.9919 83.36633 1.1001 83.36633 0.0 C  83.36633 -1.1001 84.25813 -1.9919 85.35823 -1.9919 C  86.45833 -1.9919 87.35013 -1.1001 87.35013 0.0 Z M  85.35823 0.0  " style="stroke:none"/>
 <g>
 <g>
 <g transform="matrix(1.0,0.0,0.0,1.0,89.20784,-8.56418)">
 <g fill="rgb(0.0%,0.0%,0.0%)">
 <text style="stroke:none" transform="scale(1,-1) translate(4.98326,0)" text-anchor="middle"  font-size="10.95"> 
<tspan font-family="cmmi" font-size="10">n</tspan><tspan baseline-shift="sub"><tspan font-family="cmmi" font-size="8">i</tspan> </tspan></text> 
</g>
 </g>
 </g>
 </g>
 <path d=" M  119.50143 -56.90549 M  128.03734 -56.90549 C  128.03734 -52.19118 124.21574 -48.36958 119.50143 -48.36958 C  114.78712 -48.36958 110.96553 -52.19118 110.96553 -56.90549 C  110.96553 -61.6198 114.78712 -65.44139 119.50143 -65.44139 C  124.21574 -65.44139 128.03734 -61.6198 128.03734 -56.90549 Z M  119.50143 -56.90549  " style="fill:none"/>
 <g>
 <g>
 <g transform="matrix(1.0,0.0,0.0,1.0,117.61523,-60.51637)">
 <g fill="rgb(0.0%,0.0%,0.0%)">
 <text style="stroke:none" transform="scale(1,-1) translate(1.8862,0)" text-anchor="middle"  font-size="10.95"> 
<tspan font-family="cmmi" font-size="10">i</tspan></text> 
</g>
 </g>
 </g>
 </g>
 <path d=" M  128.03734 -56.90549 L  156.03009 -56.90549  " style="fill:none"/>
 <g>
 <g transform="matrix(1.0,0.0,0.0,1.0,156.03009,-56.90549)">
 <g>
 <g stroke-width="0.31999pt">
 <g stroke-dasharray="none" stroke-dashoffset="0.0pt">
 <g stroke-linecap="round">
 <g stroke-linejoin="round">
 <path d=" M  -1.19998 1.59998 C  -1.09998 0.99998 0.0 0.09999 0.29999 0.0 C  0.0 -0.09999 -1.09998 -0.99998 -1.19998 -1.59998  " style="fill:none"/>
 </g>
 </g>
 </g>
 </g>
 </g>
  </g>
 </g>
 <path d=" M  165.02599 -56.90549 M  173.56189 -56.90549 C  173.56189 -52.19118 169.7403 -48.36958 165.02599 -48.36958 C  160.31168 -48.36958 156.49008 -52.19118 156.49008 -56.90549 C  156.49008 -61.6198 160.31168 -65.44139 165.02599 -65.44139 C  169.7403 -65.44139 173.56189 -61.6198 173.56189 -56.90549 Z M  165.02599 -56.90549  " style="fill:none"/>
 <g>
 <g>
 <g transform="matrix(1.0,0.0,0.0,1.0,162.45795,-59.4518)">
 <g fill="rgb(0.0%,0.0%,0.0%)">
 <text style="stroke:none" transform="scale(1,-1) translate(2.56804,0)" text-anchor="middle"  font-size="10.95"> 
<tspan font-family="cmmi" font-size="10">j</tspan></text> 
</g>
 </g>
 </g>
 </g>
 </g>
 </g>
 </g>
 </g>
 </g>
 
                                                                       </g> 
</svg> 
